<?xml version="1.0" encoding="utf-8"?>
<!-- Generator: Adobe Illustrator 16.0.0, SVG Export Plug-In . SVG Version: 6.00 Build 0)  -->
<!DOCTYPE svg PUBLIC "-//W3C//DTD SVG 1.1//EN" "http://www.w3.org/Graphics/SVG/1.1/DTD/svg11.dtd">
<svg version="1.1" id="galileo" xmlns="http://www.w3.org/2000/svg" xmlns:xlink="http://www.w3.org/1999/xlink" x="0px" y="0px"
	 width="237px" height="308px" viewBox="0 0 237 308" enable-background="new 0 0 237 308" xml:space="preserve">
<g id="parts">
	
		<polygon fill-rule="evenodd" clip-rule="evenodd" stroke="#000000" stroke-width="0" stroke-linecap="square" stroke-miterlimit="10" points="
		62.226,151.765 58.808,152.291 55.915,153.867 53.022,155.971 48.289,161.229 46.186,163.859 44.345,165.962 42.504,167.541 
		41.189,168.328 39.611,169.381 37.245,170.694 34.615,172.273 28.304,175.954 21.467,179.896 14.893,183.842 12,185.419 
		9.371,186.996 7.267,188.312 5.689,189.101 4.374,189.625 4.111,189.889 4.111,190.151 4.374,190.941 4.9,192.518 5.427,194.621 
		6.215,196.987 7.004,199.88 8.056,203.299 9.371,206.979 12.789,215.394 16.996,224.858 22.256,235.111 28.567,245.629 
		36.192,256.147 44.871,266.399 49.867,271.396 54.863,276.128 60.386,280.598 66.434,284.806 72.481,288.749 79.318,292.168 
		86.155,295.322 93.519,298.215 101.407,300.317 109.56,302.157 118.237,303.474 127.178,304 133.752,304 140.325,303.474 
		146.637,302.684 152.686,301.37 158.207,299.791 163.993,297.951 174.247,293.219 183.978,287.696 192.393,281.124 
		200.281,274.288 207.381,267.189 213.43,260.09 218.688,253.255 222.896,246.682 226.577,240.896 229.47,235.901 230.522,233.798 
		232.101,230.642 232.625,229.592 232.889,229.065 232.889,228.802 232.625,228.539 231.574,228.013 230.259,227.226 
		228.418,226.173 223.685,223.28 218.162,220.126 212.377,216.707 207.381,213.288 205.278,211.712 203.437,210.397 
		202.122,209.345 201.333,208.556 200.544,207.505 200.018,206.716 199.755,206.189 200.808,206.189 202.386,206.716 
		202.91,206.716 202.91,206.189 201.859,204.612 200.808,203.563 199.755,202.246 198.178,200.144 198.967,200.933 199.755,200.933 
		200.544,200.406 200.808,200.144 200.281,199.88 199.493,199.091 198.703,198.04 198.178,196.987 197.651,195.674 196.6,193.834 
		195.548,192.255 195.022,191.204 195.548,190.151 195.811,189.362 195.285,188.049 195.022,186.734 195.811,185.945 196.6,185.419 
		196.863,185.419 196.337,184.893 195.548,183.579 194.759,181.739 194.232,179.896 196.6,179.109 196.6,178.847 196.337,178.057 
		195.811,175.428 195.548,174.64 195.022,173.587 193.181,171.484 191.34,168.854 190.814,167.541 190.552,166.488 190.552,165.699 
		190.814,165.436 191.078,165.436 192.13,166.226 192.393,165.699 192.918,162.545 193.444,161.229 194.232,160.179 
		194.759,158.863 194.759,157.286 194.496,156.233 194.496,155.707 195.285,155.707 196.073,155.971 196.6,155.971 196.863,155.446 
		196.863,154.131 196.337,152.291 195.548,151.238 194.496,150.45 195.285,150.975 196.337,151.238 196.863,151.501 196.6,150.975 
		196.337,149.397 195.022,145.455 195.022,143.613 196.073,140.984 196.6,138.355 196.6,137.304 196.073,136.251 194.759,134.411 
		193.707,132.045 193.444,129.416 193.707,126.261 193.971,124.42 194.232,122.054 193.971,117.058 193.971,114.691 
		193.707,112.851 193.444,111.537 193.444,111.011 193.707,110.748 193.971,109.959 195.285,107.593 196.337,104.701 
		197.125,102.334 197.915,100.757 199.229,99.968 200.544,99.968 201.333,100.494 202.122,101.02 202.91,101.02 203.7,100.494 
		203.962,99.705 203.962,98.653 204.226,97.602 204.226,96.813 203.962,96.024 203.174,94.972 201.069,91.817 200.808,91.291 
		200.808,86.822 200.544,82.089 200.281,76.567 199.493,64.999 198.703,60.003 198.178,58.163 197.651,56.585 197.125,55.007 
		196.073,53.167 193.707,48.435 190.288,42.913 186.081,36.865 181.61,30.556 176.878,24.771 171.618,19.775 166.622,16.094 
		163.993,14.517 160.837,12.939 153.474,9.784 144.532,6.892 134.278,4.789 129.018,4.263 123.233,4 117.448,4 111.4,4.525 
		105.352,5.578 99.041,7.155 92.467,9.258 86.155,12.15 80.107,15.306 74.848,18.724 70.115,22.142 66.171,25.823 62.489,29.241 
		59.597,32.922 56.967,36.34 54.601,40.021 51.182,46.594 48.553,52.641 46.186,57.374 44.082,61.055 42.241,63.421 40.926,64.999 
		40.4,65.788 40.663,66.05 41.715,65.788 43.293,64.999 43.556,64.999 43.556,65.788 43.029,66.839 41.979,68.154 39.611,70.783 
		38.297,71.835 36.981,72.098 35.93,72.361 35.667,72.624 35.93,73.675 36.192,74.464 35.93,74.727 34.878,74.727 34.615,75.516 
		34.615,76.304 34.878,76.83 35.667,77.356 37.771,77.619 40.926,77.093 40.663,78.145 40.137,78.934 38.034,80.249 35.404,80.774 
		33.3,81.038 32.512,81.038 32.249,81.563 32.249,83.404 31.723,83.93 30.934,83.93 30.145,84.192 30.145,84.718 30.407,85.77 
		31.46,86.559 33.826,88.136 35.404,88.399 37.245,88.136 36.719,89.714 35.667,91.291 33.826,92.606 30.934,93.395 31.985,94.446 
		33.3,94.972 34.615,94.972 34.089,95.498 32.512,96.55 30.934,97.338 29.356,97.865 29.093,98.127 29.093,98.653 29.882,100.494 
		31.985,102.334 33.3,102.86 34.878,103.123 33.563,104.701 31.985,105.227 29.882,105.227 29.882,105.49 30.407,105.752 
		31.985,107.067 33.563,108.119 34.878,108.645 35.142,108.907 35.404,109.696 35.667,111.8 36.192,113.903 36.719,114.691 
		37.245,114.955 38.297,115.744 38.56,117.321 38.034,118.636 37.245,119.162 36.192,119.425 35.404,119.688 35.404,119.95 
		36.192,120.477 37.508,121.265 40.4,122.317 41.979,122.317 43.293,122.054 45.134,122.054 46.975,123.105 48.553,124.42 
		50.393,124.946 53.549,125.735 56.178,127.049 56.704,127.838 57.493,129.153 58.808,133.097 60.122,136.777 60.911,138.355 
		61.438,139.143 62.226,151.765 	"/>
	
		<polygon fill-rule="evenodd" clip-rule="evenodd" fill="#FFFFFF" stroke="#000000" stroke-width="0" stroke-linecap="square" stroke-miterlimit="10" points="
		63.015,152.554 60.648,153.604 58.808,155.446 57.229,158.073 56.44,161.229 55.915,164.648 55.652,168.592 56.178,177.53 
		58.019,187.522 60.648,197.514 63.804,207.769 67.485,216.971 69.589,221.966 72.481,227.488 75.9,233.798 79.845,240.634 
		87.996,254.831 96.938,269.292 101.145,276.128 105.089,282.701 108.771,288.486 112.189,293.745 114.818,297.951 116.923,301.107 
		117.711,302.421 118.237,303.21 118.763,303.736 118.763,304 126.651,304 136.118,303.474 140.589,303.21 144.271,302.684 
		145.585,302.421 146.374,302.157 147.163,301.37 147.951,299.791 148.478,297.425 149.267,294.796 150.845,287.96 152.422,280.598 
		153.737,272.975 154.264,269.556 154.788,266.663 155.052,264.033 155.314,262.193 155.578,260.88 155.578,260.354 155.314,260.09 
		154.264,259.564 152.686,258.514 150.581,257.197 148.215,255.357 145.059,253.255 141.64,251.151 137.959,248.521 
		129.544,242.474 120.341,235.375 110.874,227.749 101.145,219.6 91.678,211.186 82.737,202.51 74.848,193.57 71.43,189.362 
		68.537,185.155 65.907,180.949 63.804,176.743 62.226,172.798 61.175,168.854 60.911,165.175 61.175,161.492 62.226,158.337 
		64.067,155.184 63.015,152.554 	"/>
	<polygon fill-rule="evenodd" clip-rule="evenodd" fill="#BFBFBF" points="69.589,149.661 69.063,152.554 68.012,155.707 
		65.907,162.019 64.856,165.175 64.067,167.802 64.067,170.168 64.593,172.273 66.171,175.428 67.485,178.057 68.537,180.687 
		69.326,182.526 69.852,184.105 70.115,185.419 70.378,185.945 70.378,186.208 70.378,187.522 70.115,189.362 69.852,191.468 
		68.8,196.2 67.749,198.566 66.434,200.669 67.223,200.669 68.012,200.933 69.589,202.51 72.219,204.612 73.797,205.402 
		75.9,205.929 75.637,206.716 74.848,208.295 74.06,210.397 73.797,213.288 74.322,213.552 75.9,214.078 77.215,214.867 
		79.318,216.971 80.371,218.547 80.896,220.388 81.159,222.492 81.159,223.543 80.896,224.069 80.634,224.332 80.371,224.858 
		80.107,225.909 80.371,227.749 80.634,229.328 81.159,231.432 81.686,233.008 82.737,234.587 87.996,239.32 89.048,240.634 
		89.837,242.21 90.363,243.263 91.415,244.576 94.045,247.732 96.938,250.625 97.989,251.938 98.515,252.991 99.83,255.357 
		101.671,257.724 106.404,262.193 111.926,266.137 117.186,269.556 117.974,271.396 119.026,272.711 120.604,273.235 
		122.444,273.499 126.126,273.235 129.808,272.711 130.333,272.711 130.07,273.235 129.544,274.025 130.07,274.288 132.7,274.814 
		134.803,275.078 136.381,275.078 137.434,274.552 139.273,274.552 141.903,274.814 147.425,274.814 152.947,274.025 
		155.314,273.235 157.156,271.922 159.522,272.711 161.363,273.499 162.678,273.762 163.729,274.025 165.044,273.499 
		166.886,271.659 167.937,272.711 168.988,272.975 170.566,272.448 172.145,271.396 175.563,267.979 178.981,263.507 
		179.508,263.246 180.032,263.507 180.822,264.823 181.874,266.399 182.137,266.663 182.663,266.399 183.188,265.35 
		183.451,264.033 183.451,262.72 183.978,261.667 185.293,260.354 186.869,259.564 190.288,259.038 193.444,258.25 194.759,257.724 
		195.811,256.408 196.863,254.568 198.967,251.415 200.018,249.572 200.544,248.259 201.069,246.419 203.7,236.953 203.7,234.061 
		202.91,230.642 202.386,227.488 202.122,224.858 202.647,222.756 202.91,221.177 203.437,220.388 203.962,219.863 204.752,219.6 
		205.015,219.863 205.015,219.6 204.752,218.547 204.226,215.654 202.91,211.975 201.069,208.556 200.281,207.505 199.755,206.716 
		199.755,206.189 200.808,206.189 202.386,206.716 202.91,206.716 202.91,206.189 202.386,205.402 201.596,204.612 197.915,200.144 
		198.703,200.933 199.755,200.933 200.544,200.406 200.808,200.144 200.281,199.88 199.493,199.091 198.44,198.04 197.915,196.987 
		197.389,195.674 196.337,193.834 195.285,192.255 194.759,191.204 195.022,190.678 195.548,190.151 195.548,189.362 
		195.285,188.049 195.022,186.734 195.548,185.945 196.337,185.419 196.863,185.419 196.337,184.893 195.548,183.579 
		194.496,181.739 193.971,179.896 195.285,179.634 196.073,179.373 196.337,179.109 196.337,178.847 196.073,178.057 
		195.548,175.428 195.285,174.64 194.496,173.587 192.393,171.484 190.025,168.854 189.237,167.541 188.974,166.488 
		188.974,165.699 189.237,165.436 189.5,165.436 190.552,166.226 190.814,165.699 191.078,164.122 191.078,162.545 191.604,161.229 
		191.866,160.442 191.604,158.863 190.025,154.92 187.922,150.714 187.133,149.135 186.607,148.084 186.607,146.505 
		187.396,144.929 187.922,143.352 187.659,142.299 187.133,141.511 186.607,140.459 186.869,138.881 187.396,136.777 
		188.447,134.674 190.552,130.205 192.13,126.261 192.393,124.42 192.393,117.058 192.13,114.691 191.866,112.851 191.604,111.537 
		191.604,111.011 191.866,110.748 192.13,109.959 193.444,107.593 194.759,104.701 195.548,102.334 196.073,101.545 
		196.863,100.494 199.493,98.653 201.596,97.076 202.386,96.55 202.386,96.024 201.596,94.972 199.493,91.817 199.229,91.291 
		199.229,86.822 198.967,82.089 198.703,76.567 197.915,64.999 197.125,60.003 196.863,58.163 196.337,56.585 195.548,55.007 
		194.759,53.167 192.393,48.698 189.237,43.438 185.818,37.917 181.61,32.133 177.403,26.875 173.196,22.404 168.988,18.986 
		166.359,17.409 163.203,15.569 159.785,13.728 155.84,12.15 151.37,10.31 146.9,8.996 136.645,6.629 131.122,5.84 125.337,5.314 
		119.552,5.314 113.504,5.578 107.193,6.629 101.145,8.207 94.57,10.31 88.259,12.939 82.211,16.094 76.689,19.512 71.956,22.93 
		67.749,26.349 64.067,30.03 60.911,33.448 58.019,36.865 55.652,40.284 51.971,46.856 49.078,52.641 46.711,57.374 44.345,61.055 
		42.504,63.421 41.189,64.999 40.663,65.788 40.926,66.05 41.979,65.788 43.556,64.999 43.818,64.999 43.818,65.788 43.293,66.839 
		42.241,68.154 39.874,70.783 38.56,71.835 37.245,72.098 36.192,72.361 35.93,72.624 36.192,73.675 36.192,74.464 35.93,74.727 
		35.142,74.727 34.878,75.516 34.878,76.304 35.142,76.83 35.93,77.356 38.034,77.619 41.189,77.093 40.926,78.145 40.4,78.934 
		38.297,80.249 35.667,80.774 33.563,81.038 34.089,81.3 35.93,81.826 38.822,82.877 42.241,83.667 50.13,85.244 53.549,85.77 
		56.704,85.507 54.601,89.451 53.285,93.395 52.76,97.338 53.022,101.02 54.074,104.701 55.39,107.856 59.333,114.166 
		63.804,119.162 68.537,123.105 70.378,124.683 71.956,125.735 73.008,126.524 73.533,127.049 69.589,149.661 	"/>
	<polygon fill-rule="evenodd" clip-rule="evenodd" fill="#FFFFFF" points="120.866,16.357 124.548,13.728 127.967,12.414 
		131.648,11.625 135.329,11.625 142.166,13.202 147.951,15.569 149.529,16.357 151.633,17.409 156.63,20.038 162.415,23.719 
		168.2,27.926 173.196,32.396 175.563,34.499 177.14,36.865 178.192,39.232 178.981,41.335 178.718,43.438 177.93,45.542 
		176.878,47.383 176.352,49.223 176.089,52.115 176.878,54.219 177.93,56.059 179.244,57.374 180.032,58.163 180.032,58.951 
		179.508,59.478 178.455,59.74 176.089,60.266 174.247,60.529 170.566,60.792 167.674,60.792 164.255,61.844 162.151,62.37 
		160.049,62.632 155.314,61.844 152.947,61.317 151.107,60.792 149.267,60.529 147.951,60.266 147.163,60.266 147.163,60.529 
		147.688,60.529 148.478,60.792 151.37,61.581 154.788,62.106 157.681,62.632 160.049,63.421 162.94,63.684 164.781,63.684 
		167.41,63.421 170.303,63.421 172.671,63.684 174.773,64.473 176.615,65.262 177.93,66.313 178.718,67.365 178.981,68.417 
		178.455,69.206 177.666,69.994 177.666,70.52 178.192,72.098 179.771,73.412 182.137,75.516 183.715,77.882 184.503,80.511 
		185.556,82.089 186.607,82.615 187.922,82.877 188.974,83.93 189.5,84.981 189.762,86.822 188.447,88.399 186.345,88.925 
		185.029,88.662 184.24,87.873 182.926,85.507 181.61,83.404 180.822,82.615 180.032,82.615 177.666,82.615 175.037,82.352 
		172.671,81.3 171.355,79.459 170.829,78.671 170.566,78.671 170.303,78.934 169.778,79.723 168.988,80.774 167.674,81.563 
		166.096,82.089 163.729,82.089 162.151,82.352 160.049,82.877 157.418,83.93 154.788,85.507 148.215,88.399 141.378,91.554 
		134.803,93.395 131.91,93.921 129.281,93.921 126.915,93.132 125.074,91.817 123.759,89.714 122.971,86.559 122.182,84.718 
		121.13,83.404 117.974,81.826 116.396,80.774 115.607,78.934 115.345,76.304 115.607,74.464 116.134,72.361 116.659,70.257 
		116.396,68.154 115.345,64.736 113.241,61.844 110.874,59.478 108.244,56.848 106.141,53.956 105.089,50.538 105.089,48.435 
		105.615,46.331 108.244,37.391 111.4,29.504 113.241,25.823 115.345,22.404 117.974,19.25 120.866,16.357 	"/>
	<polygon fill-rule="evenodd" clip-rule="evenodd" fill="#FFFFFF" points="96.675,67.102 99.566,70.52 101.145,74.201 
		102.196,78.145 102.723,81.826 103.248,84.981 103.774,87.348 104.826,88.662 105.615,88.925 106.667,88.662 109.033,88.399 
		111.137,88.925 112.979,90.24 114.818,92.08 116.134,94.184 117.186,96.55 117.711,98.653 117.711,100.494 117.711,101.02 
		118.237,101.283 119.289,101.283 120.341,101.02 121.919,100.494 123.497,99.705 127.703,98.127 132.174,96.55 137.171,95.498 
		141.903,95.498 144.271,96.024 146.374,96.813 148.215,97.865 149.529,98.917 150.318,99.705 150.581,100.494 150.056,102.071 
		148.215,103.123 145.585,104.175 142.43,104.701 136.645,104.701 134.803,104.701 134.015,104.964 134.015,105.752 
		134.278,106.804 134.541,109.433 134.015,110.748 132.7,112.063 131.91,112.588 131.648,113.114 131.91,113.903 132.7,114.166 
		133.488,114.955 133.752,115.744 133.488,116.532 132.963,117.321 131.648,118.373 130.07,119.688 127.703,121.528 
		124.548,123.369 121.393,125.472 119.026,127.312 116.923,129.416 115.607,130.993 114.556,132.571 113.767,134.148 
		112.715,135.989 112.452,136.251 111.926,136.515 111.137,135.989 110.349,135.2 109.297,133.623 107.455,131.782 105.352,129.153 
		102.723,125.998 99.83,122.317 97.726,118.898 95.886,115.217 94.308,111.537 92.467,104.175 91.678,96.813 91.678,89.714 
		92.467,82.615 93.519,76.042 94.833,69.731 96.675,67.102 	"/>
	
		<polygon fill-rule="evenodd" clip-rule="evenodd" stroke="#000000" stroke-width="0" stroke-linecap="square" stroke-miterlimit="10" points="
		126.39,99.968 125.601,100.757 124.548,101.545 123.233,102.071 122.182,102.334 121.919,102.334 122.182,102.598 123.233,103.123 
		124.812,103.912 125.863,104.701 126.39,104.438 127.178,103.649 128.756,102.86 130.596,102.86 132.437,103.386 133.488,103.912 
		134.015,104.175 134.278,104.175 133.752,101.809 135.855,100.494 136.118,101.02 137.171,101.809 138.485,102.598 140.589,102.86 
		142.692,102.071 143.744,101.02 144.271,99.968 144.271,99.442 144.796,99.705 145.849,100.494 146.9,101.545 147.163,102.334 
		145.585,103.386 144.532,103.912 142.166,104.438 139.8,104.701 137.959,104.701 137.434,104.701 137.434,104.964 138.222,105.49 
		140.063,106.015 142.166,106.278 146.637,105.227 148.741,104.438 150.056,104.175 150.845,104.438 151.896,105.227 
		152.947,105.752 154,105.227 155.578,104.438 157.418,104.701 159.259,104.175 159.785,103.649 160.311,102.598 161.1,100.494 
		161.1,99.179 160.837,98.39 159.785,97.865 158.996,97.338 158.996,96.813 159.522,96.024 160.573,95.235 161.625,94.184 
		162.151,93.132 162.151,91.817 161.889,89.451 161.625,87.348 161.363,86.559 160.837,86.296 160.049,86.296 160.049,89.451 
		159.785,91.028 158.996,91.817 158.471,91.554 158.471,90.766 158.732,89.977 158.732,89.714 157.944,88.925 157.418,87.348 
		156.893,87.084 156.366,87.61 155.578,87.873 154.788,87.61 153.211,86.559 150.845,86.033 149.529,85.507 148.478,84.718 
		147.688,84.192 146.9,84.192 146.11,84.718 145.585,85.244 144.271,85.507 143.481,86.033 142.43,88.136 141.378,88.662 
		140.325,88.662 139.8,89.188 139.273,89.451 139.537,89.188 139.8,88.399 141.64,87.084 142.956,85.77 143.218,85.244 
		143.218,84.981 142.692,84.981 141.115,85.244 139.537,85.77 138.222,86.822 137.696,87.348 137.696,87.61 138.222,87.348 
		139.8,86.296 139.8,86.559 139.537,87.348 138.485,88.136 137.434,88.399 136.118,88.399 135.066,89.188 134.015,90.24 
		132.437,91.291 130.859,92.343 129.808,92.869 129.018,92.869 129.018,92.343 130.07,91.291 133.226,89.714 134.278,88.925 
		135.593,87.61 136.118,87.348 136.381,87.084 136.118,87.084 135.066,87.348 133.752,87.873 131.91,88.925 130.333,89.977 
		129.018,90.766 127.703,91.817 126.651,93.132 125.337,94.709 123.759,95.498 121.919,96.024 119.815,96.55 117.974,97.602 
		116.923,98.653 117.448,99.968 118.237,100.494 119.289,100.757 121.919,101.02 124.022,100.757 125.337,100.231 125.863,99.968 
		126.39,99.968 	"/>
	
		<polygon fill-rule="evenodd" clip-rule="evenodd" fill="#FFFFFF" stroke="#000000" stroke-width="0" stroke-linecap="square" stroke-miterlimit="10" points="
		130.07,100.494 130.333,100.231 131.386,99.968 134.541,98.39 138.485,97.076 140.589,96.55 142.166,96.55 143.744,96.813 
		144.532,97.076 145.059,97.338 145.322,97.338 145.059,97.076 144.532,96.55 141.903,95.235 140.063,94.972 137.434,95.235 
		135.593,95.761 133.752,96.55 131.648,97.865 129.544,99.442 130.07,100.494 	"/>
	
		<path fill-rule="evenodd" clip-rule="evenodd" fill="#FFFFFF" stroke="#000000" stroke-width="0" stroke-linecap="square" stroke-miterlimit="10" d="
		M138.222,99.968c0-0.584,0.409-1.051,0.921-1.051c0.511,0,0.921,0.467,0.921,1.051c0,0.584-0.41,1.052-0.921,1.052
		C138.631,101.02,138.222,100.552,138.222,99.968L138.222,99.968z"/>
	
		<polygon fill-rule="evenodd" clip-rule="evenodd" stroke="#000000" stroke-width="0" stroke-linecap="square" stroke-miterlimit="10" points="
		119.289,93.921 120.866,93.657 122.182,92.606 124.022,90.503 124.285,89.977 124.285,90.503 123.233,92.869 122.971,93.132 
		123.759,92.343 125.863,89.451 127.178,88.399 131.386,86.296 133.226,85.244 133.488,84.718 132.963,84.981 132.174,85.244 
		129.808,86.559 126.39,87.61 124.812,88.136 123.759,88.925 122.182,90.503 120.341,92.343 119.026,92.869 117.186,93.395 
		119.289,93.921 	"/>
	
		<polygon fill-rule="evenodd" clip-rule="evenodd" stroke="#000000" stroke-width="0" stroke-linecap="square" stroke-miterlimit="10" points="
		149.003,104.175 148.478,106.015 147.425,107.856 144.532,111.537 141.378,114.429 140.063,115.48 139.011,116.006 
		138.485,116.006 139.537,114.429 140.325,113.64 141.64,112.063 142.956,109.959 144.008,108.119 144.271,106.804 143.481,105.752 
		149.003,104.175 	"/>
	<polygon fill-rule="evenodd" clip-rule="evenodd" fill="#FFFFFF" points="182.4,174.64 182.663,178.057 183.188,181.213 
		183.978,183.579 185.029,185.945 187.922,189.101 190.552,191.468 192.918,194.095 194.232,196.987 195.022,199.617 
		195.285,201.72 195.285,202.246 195.022,201.983 194.759,201.195 194.232,200.144 192.393,197.514 189.762,194.884 
		188.711,194.357 188.447,194.621 188.711,195.674 189.237,197.25 190.025,199.354 191.078,201.457 191.604,203.563 
		191.866,205.402 191.604,206.452 191.34,206.452 190.814,205.402 190.025,203.563 187.659,199.091 186.345,196.987 
		184.767,195.147 183.451,193.57 182.4,191.729 181.61,188.049 181.61,183.842 182.137,179.896 182.4,174.64 	"/>
	<polygon fill-rule="evenodd" clip-rule="evenodd" fill="#FFFFFF" points="168.463,103.649 170.303,106.541 171.881,109.696 
		173.459,116.27 173.985,119.425 174.247,122.317 174.511,124.683 174.511,126.261 175.037,130.467 174.773,131.519 
		173.985,132.308 172.671,132.834 170.829,133.097 166.886,133.359 163.467,133.885 157.418,135.2 155.84,135.463 154.264,134.674 
		153.211,133.623 152.422,132.308 152.422,130.467 152.686,128.89 154,127.312 155.84,126.261 158.207,126.261 160.837,127.049 
		162.678,127.575 163.203,127.575 163.467,126.786 162.94,125.472 162.151,124.683 161.1,123.631 160.837,121.791 160.573,121.002 
		160.049,120.739 159.259,121.002 158.471,121.528 155.84,123.105 152.947,124.683 151.37,125.735 149.267,127.312 144.532,131.782 
		139.011,135.726 136.118,137.041 132.963,137.566 130.07,137.304 127.703,137.041 125.863,136.251 124.548,135.463 
		124.022,134.148 124.285,132.571 125.601,130.73 127.967,128.364 130.859,126.261 134.015,124.42 136.645,123.105 139.537,122.054 
		141.903,121.002 143.744,119.688 145.322,118.11 146.374,116.006 146.9,114.955 147.163,114.429 148.478,114.429 149.793,114.955 
		151.107,116.27 152.686,117.321 154.264,117.847 156.104,117.584 156.893,117.058 157.681,116.006 160.573,111.537 162.94,107.856 
		164.781,104.964 166.622,103.123 168.463,103.649 	"/>
	<polygon fill-rule="evenodd" clip-rule="evenodd" fill="#FFFFFF" points="179.244,124.42 180.559,126.786 181.61,128.89 
		181.874,130.73 181.874,132.571 181.348,134.148 180.559,135.463 178.192,137.304 177.14,137.566 177.14,136.777 177.666,136.251 
		178.192,134.674 179.508,130.467 179.771,128.364 178.981,125.998 179.244,124.42 	"/>
	<polygon fill-rule="evenodd" clip-rule="evenodd" fill="#FFFFFF" points="176.615,143.352 179.508,146.505 181.874,149.135 
		183.715,150.975 185.293,152.291 187.133,153.341 188.974,155.184 190.288,157.023 190.814,159.39 190.814,161.756 191.34,163.333 
		191.604,164.648 191.604,164.911 191.078,164.385 190.288,163.069 188.186,159.126 187.922,158.6 187.659,158.6 187.396,159.39 
		187.133,160.442 186.081,163.596 185.029,165.175 183.715,166.488 182.663,167.278 182.4,167.015 182.663,165.962 183.188,164.385 
		184.503,160.703 185.029,158.863 185.029,157.55 184.767,156.76 184.24,157.813 183.451,159.126 182.4,160.179 181.874,160.179 
		182.137,159.39 182.137,158.863 182.4,158.073 182.663,156.76 182.4,156.233 181.874,157.023 181.085,157.813 180.032,158.6 
		179.508,158.6 179.508,157.55 178.981,155.446 178.718,155.446 177.666,157.023 176.615,157.55 175.3,157.286 174.511,156.76 
		174.247,155.707 174.247,154.657 174.247,154.394 173.459,155.184 171.881,156.497 170.04,157.023 169.515,156.76 169.515,156.497 
		170.303,155.707 171.093,154.657 173.459,152.027 174.247,150.188 174.511,148.348 174.773,146.769 174.773,146.242 
		175.563,146.242 176.089,146.505 176.352,146.505 176.615,145.718 176.615,143.352 	"/>
	<polygon fill-rule="evenodd" clip-rule="evenodd" fill="#FFFFFF" points="66.434,91.291 65.645,93.921 64.067,96.55 62.226,98.653 
		61.7,99.179 61.438,99.179 61.7,98.917 62.752,98.653 66.171,97.602 69.852,96.55 71.167,96.287 71.956,95.761 72.219,95.761 
		72.219,96.287 71.956,97.338 71.167,98.653 69.326,101.545 68.274,102.86 66.96,103.649 66.171,104.175 65.907,104.175 
		66.696,104.175 67.749,103.912 71.43,102.86 75.637,101.545 76.426,101.283 76.952,101.283 77.215,101.545 76.426,102.598 
		75.111,103.649 71.43,106.278 69.589,107.067 68.274,107.593 67.485,107.856 68.537,108.382 70.641,108.645 72.481,108.645 
		73.271,108.907 73.271,109.959 72.219,111.011 70.378,112.063 69.589,112.588 69.589,112.851 70.641,113.377 72.481,113.377 
		74.06,112.851 75.111,112.588 75.637,113.64 75.374,115.48 74.322,117.847 73.797,118.898 73.797,119.688 74.322,120.213 
		75.111,120.477 77.215,119.95 78.268,119.162 79.056,117.847 79.845,116.795 80.634,116.532 81.159,117.058 81.686,118.373 
		81.948,119.688 81.686,121.528 81.159,123.631 79.845,125.735 78.793,127.312 78.529,128.627 78.793,129.153 79.582,129.416 
		81.686,129.153 83.789,127.575 84.315,127.312 84.052,128.101 83,129.416 81.422,131.519 77.741,135.989 75.637,137.83 
		73.533,139.406 72.219,140.196 72.219,140.722 73.271,140.459 74.848,140.196 78.529,138.618 80.371,137.83 81.686,136.777 
		82.475,136.251 82.737,136.251 82.475,137.041 81.948,137.83 80.896,139.143 79.318,140.722 75.9,143.613 75.111,144.139 
		74.848,144.665 74.848,144.929 75.9,144.665 77.479,143.877 81.422,141.772 83,140.722 84.052,139.933 84.841,139.406 
		85.367,139.669 85.367,141.511 84.841,142.563 83.789,144.139 81.948,145.455 79.845,146.769 78.793,147.295 78.004,147.821 
		77.741,148.608 78.529,149.135 79.845,149.397 83.789,149.397 85.63,149.135 86.944,148.871 87.208,148.871 87.471,149.135 
		87.208,150.714 86.155,152.816 84.578,155.446 80.634,161.229 78.529,163.859 76.689,165.962 75.637,167.802 75.111,169.381 
		75.374,171.221 76.426,174.377 77.215,175.428 77.479,176.217 77.479,176.48 77.215,175.954 77.215,173.061 77.479,170.958 
		78.268,168.854 79.318,166.752 80.896,165.175 83,163.859 84.841,163.333 85.63,163.069 85.63,163.333 85.104,164.122 
		84.052,165.175 83,166.752 81.948,168.592 81.422,170.694 80.634,174.901 80.634,178.32 80.896,179.373 81.422,179.896 
		82.475,179.896 83.789,178.847 85.367,177.794 87.208,177.53 88.785,177.794 90.101,178.583 91.151,180.16 91.678,182.002 
		91.415,184.368 90.101,186.996 88.785,189.625 88.259,191.468 88.259,193.044 89.048,193.834 90.101,194.095 91.678,194.095 
		93.782,193.834 96.148,193.044 97.2,192.781 97.989,193.044 99.041,194.095 99.041,195.674 98.778,198.04 96.938,202.772 
		96.148,204.612 95.622,205.665 95.622,206.189 95.886,206.716 96.938,206.716 98.252,206.189 99.041,205.402 99.304,205.139 
		99.566,205.402 99.83,206.716 100.355,208.556 100.355,210.135 100.882,210.922 101.934,211.975 103.248,212.501 104.3,211.975 
		105.615,211.712 107.455,212.501 108.244,214.341 108.508,215.654 107.981,217.233 106.667,220.914 105.615,225.122 
		104.826,227.226 103.774,229.065 101.934,230.379 99.83,231.694 97.989,232.745 97.2,233.534 97.2,234.061 97.989,234.324 
		99.304,234.324 102.459,233.271 104.037,232.221 105.089,231.694 105.878,231.958 105.878,232.745 105.615,234.324 
		103.774,237.478 102.459,239.057 100.619,240.107 99.566,240.634 99.566,241.16 100.619,241.687 105.878,241.687 107.719,241.423 
		108.771,240.896 109.297,240.634 109.56,241.16 109.56,244.053 108.508,248.259 106.667,253.255 106.404,254.305 106.141,254.831 
		106.404,255.357 107.455,254.831 108.771,253.781 111.4,250.362 112.715,248.521 113.241,247.206 113.504,246.419 114.029,246.943 
		114.293,247.996 114.556,249.836 114.556,254.831 113.767,261.141 113.504,262.457 113.241,263.507 113.504,264.56 
		114.293,264.823 115.082,264.033 117.448,261.404 118.5,259.827 119.289,258.774 119.815,258.514 120.604,259.301 121.13,260.616 
		121.393,262.457 121.919,266.926 122.182,268.766 122.182,270.082 122.708,270.869 123.759,271.659 127.441,271.659 
		129.281,271.133 131.122,270.345 132.174,269.029 132.7,267.452 132.963,266.663 133.488,266.399 135.329,266.137 137.959,266.663 
		140.852,267.189 144.271,267.979 147.163,268.242 149.793,267.716 150.581,267.189 151.37,266.137 153.211,261.141 
		155.052,255.621 157.418,250.625 158.732,248.521 160.311,247.206 161.625,245.629 162.415,243.263 162.94,240.37 162.94,237.215 
		162.151,231.168 161.625,228.802 161.1,227.226 160.837,226.962 161.1,226.962 161.1,227.226 161.625,228.013 162.678,230.642 
		163.729,234.061 164.255,238.004 164.518,242.474 163.467,247.206 162.678,249.572 161.363,251.676 160.049,253.781 
		159.259,255.357 158.207,258.514 158.471,260.88 159.259,262.457 160.311,263.771 161.625,264.297 162.678,264.823 162.94,264.823 
		162.678,264.297 161.889,262.983 161.889,260.88 162.151,259.564 162.94,257.987 163.993,256.672 164.781,256.408 165.308,256.935 
		166.096,257.987 166.886,261.667 167.41,265.612 167.674,266.926 167.937,267.452 168.463,266.926 168.726,265.612 
		168.988,262.457 169.252,259.564 169.252,258.774 169.515,258.514 170.566,259.038 172.407,262.457 172.671,262.983 
		173.196,263.246 173.985,262.983 174.511,262.457 176.089,260.354 177.93,257.197 179.244,255.884 181.085,255.357 
		188.186,255.357 190.288,254.568 192.13,252.991 192.918,251.676 193.444,250.099 193.971,246.682 193.707,243 192.918,239.581 
		191.866,236.428 188.186,230.379 183.978,225.122 182.137,222.756 181.348,220.65 180.559,216.707 180.032,214.867 
		179.244,213.288 177.666,211.975 175.3,210.661 172.671,209.345 170.829,207.505 169.515,205.402 168.726,203.299 168.463,201.457 
		168.2,199.88 168.2,198.303 168.463,198.566 168.988,199.617 170.566,202.51 172.933,205.402 174.247,206.716 175.3,207.505 
		176.089,207.505 176.352,206.979 176.352,206.189 176.089,204.876 175.3,201.983 174.773,200.669 174.773,199.617 174.773,198.827 
		175.037,198.566 176.089,199.091 177.666,200.144 180.032,200.669 180.822,200.669 181.085,200.144 180.559,199.617 
		180.032,198.566 179.244,196.987 178.718,194.884 178.455,191.991 178.718,188.574 179.244,184.893 179.244,181.213 
		178.455,175.164 177.403,170.168 177.403,168.328 177.666,166.752 178.192,165.699 178.192,164.911 177.93,164.385 
		177.403,164.385 175.563,164.648 172.933,165.699 171.355,165.962 169.778,165.962 166.622,165.175 163.203,163.596 
		159.522,162.019 155.314,161.229 151.107,160.703 147.688,160.442 146.374,160.442 146.374,165.436 147.425,170.432 
		148.215,172.798 149.529,175.164 150.581,177.006 150.845,178.32 150.581,178.847 149.793,179.109 149.003,178.847 
		147.951,178.057 146.11,175.954 145.585,175.164 145.322,174.901 145.059,175.428 145.059,176.48 145.322,178.583 145.585,179.373 
		145.585,179.896 145.322,179.634 144.008,178.057 142.43,175.69 141.378,172.011 141.115,171.221 141.115,170.694 140.852,170.958 
		140.589,172.535 140.325,174.377 140.063,178.847 140.063,180.949 139.8,180.16 139.273,178.583 137.171,174.377 135.066,172.273 
		132.437,169.907 131.386,168.592 130.859,167.278 130.859,165.962 131.386,164.385 133.226,161.492 134.541,158.6 136.118,156.497 
		138.222,155.184 139.273,154.657 140.063,154.131 140.589,152.554 141.115,150.714 142.43,149.135 143.218,148.871 
		144.008,148.871 144.271,149.661 144.271,150.975 144.532,151.501 145.585,151.501 147.951,151.238 150.581,150.975 
		152.422,150.714 153.474,150.975 154.525,153.604 155.052,154.131 157.418,153.867 159.785,153.341 161.1,153.604 162.94,154.657 
		165.044,155.446 167.147,155.184 167.937,154.394 168.463,153.341 168.726,150.45 167.937,147.295 167.41,146.242 166.359,145.455 
		164.518,144.929 163.467,145.191 162.94,145.981 162.94,147.031 162.678,147.558 162.151,146.769 161.363,145.455 160.311,143.877 
		159.785,143.352 159.522,143.352 159.259,144.139 158.996,146.769 158.732,147.031 157.944,146.242 155.84,143.613 
		155.052,143.352 154.525,143.877 154,145.191 153.211,147.031 152.686,147.558 152.159,147.821 151.633,147.031 151.107,145.455 
		150.581,143.613 150.318,143.089 150.056,143.089 149.793,144.139 149.003,145.718 148.215,146.505 146.9,147.031 145.585,147.295 
		144.532,147.031 143.744,146.505 143.481,145.718 143.481,143.613 144.532,141.511 144.796,140.984 144.271,141.247 
		142.956,142.036 141.378,143.352 137.696,146.769 136.118,148.608 135.066,150.714 134.278,152.291 134.015,152.816 
		133.752,152.291 133.752,149.135 134.015,147.031 133.752,146.505 133.226,146.769 132.174,147.295 131.122,148.348 
		130.333,149.924 129.544,152.291 129.018,155.446 129.018,159.39 129.018,162.809 128.493,163.859 128.229,164.648 
		126.915,165.175 125.337,164.648 123.759,163.333 121.919,161.229 120.604,158.863 119.815,156.497 119.026,154.92 
		117.974,154.131 116.396,153.867 115.082,154.131 112.715,154.92 112.189,154.92 112.189,154.131 111.926,152.816 111.137,150.714 
		108.244,146.242 105.615,141.511 104.826,139.406 105.089,137.566 105.352,136.251 105.089,135.2 102.985,133.885 101.145,132.571 
		100.882,131.519 101.407,130.205 101.934,128.101 101.671,125.472 100.882,122.58 99.566,119.688 97.726,117.058 95.886,115.48 
		94.045,114.691 92.993,114.955 92.204,115.48 90.89,116.795 90.101,117.058 89.574,116.795 89.574,116.006 90.363,113.377 
		91.415,110.748 91.678,109.959 91.678,109.433 90.626,109.433 89.048,109.959 87.471,110.222 86.944,109.959 86.944,109.696 
		87.996,108.119 89.837,106.015 90.89,103.649 90.89,102.86 90.626,102.598 90.101,102.86 89.048,103.386 86.682,104.701 
		83.789,106.015 83,106.015 83,105.49 83.789,104.175 85.104,102.86 87.996,99.442 88.785,98.127 89.312,97.338 89.048,96.55 
		87.996,96.287 86.682,96.813 84.841,97.865 83.264,98.653 82.211,99.179 81.422,99.705 80.371,101.02 79.845,101.545 
		80.107,101.02 80.371,99.968 81.159,97.602 81.686,95.498 81.686,94.709 81.159,94.446 80.107,94.972 79.582,95.498 78.793,96.024 
		77.479,96.813 77.215,96.813 77.479,96.024 79.582,93.921 82.475,91.028 85.367,88.399 85.893,87.873 85.367,88.136 84.052,88.925 
		81.948,90.24 76.689,92.343 73.797,92.606 71.167,92.343 70.904,92.08 71.167,91.554 72.219,89.977 73.797,88.136 74.848,86.296 
		66.434,91.291 	"/>
	
		<polygon fill-rule="evenodd" clip-rule="evenodd" stroke="#000000" stroke-width="0" stroke-linecap="square" stroke-miterlimit="10" points="
		154.264,125.209 153.211,126.524 152.159,128.364 151.633,130.467 151.37,132.571 151.633,134.674 152.686,136.777 154,138.092 
		156.104,139.143 157.944,139.406 159.785,139.406 162.678,138.618 164.781,138.092 165.833,138.092 166.886,138.618 
		167.674,139.143 167.674,139.669 167.147,139.933 165.308,139.669 163.203,139.669 162.415,139.669 162.151,140.196 
		162.678,141.247 163.467,142.563 163.993,143.877 164.255,144.402 164.518,144.402 165.044,143.877 165.044,143.089 
		165.044,142.825 165.308,143.089 166.359,144.402 167.147,146.505 167.41,148.084 167.41,148.348 167.674,148.348 167.937,147.558 
		168.463,144.402 168.463,143.613 168.988,143.877 170.04,145.191 170.303,145.718 170.566,145.981 170.829,145.455 
		170.566,143.877 170.566,143.352 170.829,143.613 171.618,145.718 171.881,148.348 171.355,149.397 170.303,150.188 
		169.252,150.714 168.988,150.975 169.515,151.501 170.303,152.027 170.303,152.554 170.04,153.341 169.778,153.867 170.04,153.867 
		170.829,153.341 171.618,152.554 173.459,149.924 174.247,146.769 174.247,144.402 174.773,142.563 175.563,141.247 
		177.403,140.196 179.771,138.881 181.61,136.777 182.663,133.885 182.926,132.045 182.663,129.941 181.61,126.261 180.032,123.631 
		178.718,121.002 177.666,117.584 177.14,113.64 176.089,110.748 175.3,108.645 175.037,108.119 175.037,107.856 175.3,108.119 
		175.825,108.382 177.666,108.907 178.192,108.645 177.666,108.119 177.14,107.33 176.878,106.541 178.192,105.227 178.981,104.701 
		179.244,104.438 179.508,105.227 180.296,106.804 181.874,108.119 182.663,108.382 183.978,108.382 186.081,107.593 
		187.133,106.541 187.659,105.752 187.659,105.227 187.922,105.49 188.711,106.278 189.5,107.33 189.237,108.119 187.659,109.17 
		187.133,109.433 186.345,109.696 186.081,109.696 186.345,109.696 187.659,109.959 190.814,109.696 191.866,108.907 
		192.393,107.856 192.655,106.541 192.918,104.964 192.655,104.175 192.13,103.123 189.5,101.283 186.345,99.705 184.767,99.179 
		183.715,98.917 181.085,99.179 178.718,100.231 176.878,101.02 176.089,101.545 176.089,101.02 176.352,99.968 177.403,97.602 
		178.455,97.076 179.771,97.076 182.4,96.813 183.451,96.55 184.767,96.813 186.607,97.338 187.133,97.865 187.922,98.39 
		188.711,98.653 190.025,98.653 192.393,98.653 193.971,98.39 194.232,98.39 193.971,98.917 193.444,99.705 192.655,99.968 
		192.393,100.231 193.971,101.283 194.496,102.071 194.759,102.598 195.811,102.334 196.863,101.545 197.915,100.494 198.44,99.179 
		198.178,97.865 197.651,96.813 196.863,96.287 196.6,96.287 196.863,96.287 197.915,96.55 199.493,97.338 200.281,98.127 
		200.281,98.39 200.544,98.127 200.544,97.076 199.755,95.498 198.178,93.921 196.6,92.606 196.073,91.817 195.548,91.554 
		194.496,91.817 191.866,92.869 190.288,92.869 188.974,92.343 188.711,92.08 188.447,92.08 189.5,92.869 191.604,94.184 
		194.232,94.972 195.285,95.235 194.759,94.972 193.971,94.972 191.34,94.446 189.5,93.657 188.711,92.869 187.922,92.343 
		186.345,92.343 185.818,92.343 185.293,92.08 184.24,91.028 182.4,90.766 181.085,90.766 181.61,91.028 184.767,92.606 
		185.556,93.395 186.081,94.184 186.869,94.709 187.922,95.498 188.711,95.761 188.186,95.761 186.869,95.498 185.293,94.972 
		184.503,94.184 183.715,92.869 182.663,92.343 181.348,92.08 178.981,91.291 177.666,89.977 177.666,88.925 178.192,87.61 
		179.244,86.033 180.559,84.981 180.822,84.718 180.296,84.718 178.718,85.77 176.615,88.136 175.825,89.714 175.3,91.554 
		174.511,93.132 172.933,94.184 170.829,94.709 168.726,94.709 167.937,94.709 167.674,95.235 168.2,96.287 170.829,99.179 
		171.355,99.705 171.355,101.283 171.093,102.334 171.093,104.438 171.355,105.49 172.145,106.804 174.247,110.748 175.825,115.217 
		176.352,117.584 176.878,119.425 177.14,121.002 177.666,122.054 178.192,123.105 178.981,124.683 180.032,126.261 
		180.822,128.101 181.874,132.045 181.61,134.148 180.559,135.726 177.93,138.355 175.563,139.933 173.459,140.459 172.145,140.196 
		171.618,139.669 170.829,138.881 170.303,138.092 169.515,137.041 167.937,135.463 166.886,135.2 165.57,135.2 162.94,135.989 
		160.573,137.041 158.207,137.566 155.84,136.777 154,134.938 152.947,132.571 152.947,129.679 154,126.524 154.264,125.209 	"/>
	
		<path fill-rule="evenodd" clip-rule="evenodd" fill="#FFFFFF" stroke="#000000" stroke-width="0" stroke-linecap="square" stroke-miterlimit="10" d="
		M181.348,104.964c0-0.585,0.409-1.052,0.921-1.052s0.92,0.467,0.92,1.052c0,0.584-0.408,1.051-0.92,1.051
		S181.348,105.548,181.348,104.964L181.348,104.964z"/>
	
		<polygon fill-rule="evenodd" clip-rule="evenodd" fill="#FFFFFF" stroke="#000000" stroke-width="0" stroke-linecap="square" stroke-miterlimit="10" points="
		178.718,102.86 180.296,102.071 182.4,101.545 185.029,101.545 187.922,102.071 188.974,102.334 188.711,102.071 187.922,101.283 
		186.345,100.757 182.4,99.968 180.296,100.231 178.718,101.283 178.718,102.86 	"/>
	
		<polygon fill-rule="evenodd" clip-rule="evenodd" stroke="#000000" stroke-width="0" stroke-linecap="square" stroke-miterlimit="10" points="
		188.447,110.485 187.659,111.274 186.869,111.8 184.767,112.063 182.663,111.8 181.874,111.537 181.61,111.537 181.874,111.8 
		182.926,112.588 183.978,113.114 184.767,113.377 185.293,113.64 185.556,114.429 185.556,116.27 185.818,116.532 186.345,116.27 
		187.922,114.955 190.025,113.114 191.078,111.011 188.447,110.485 	"/>
	<polygon fill-rule="evenodd" clip-rule="evenodd" fill="#BFBFBF" points="192.13,125.998 192.393,129.416 193.444,133.097 
		194.759,135.989 195.548,137.041 196.073,137.566 196.337,137.566 195.548,137.304 193.444,135.989 193.181,135.726 
		193.444,136.251 194.232,137.566 194.496,138.618 195.022,139.669 195.022,141.247 194.759,141.772 194.496,141.772 
		194.496,140.984 193.971,139.669 192.655,138.092 191.078,136.515 190.288,134.411 190.025,132.308 190.288,130.467 
		190.552,130.205 190.552,130.73 190.814,131.782 190.814,133.359 191.604,136.777 191.866,138.355 192.655,139.143 
		193.707,140.722 194.232,142.563 193.971,144.139 193.971,144.929 193.971,144.402 193.707,143.089 192.393,140.196 
		192.13,139.933 192.13,140.459 192.393,142.299 193.181,144.929 194.759,147.031 195.548,147.558 195.548,148.348 195.022,148.348 
		194.232,148.084 193.444,147.558 192.13,146.242 190.814,144.665 189.5,142.825 188.447,141.247 187.396,138.881 186.607,137.041 
		186.081,135.989 185.818,135.989 185.818,137.041 186.081,138.355 186.607,140.196 188.711,144.665 191.866,149.135 
		193.444,150.975 194.232,152.291 194.759,153.341 195.022,154.131 195.022,154.92 194.759,154.92 194.496,154.394 193.707,153.341 
		192.655,152.027 191.604,151.238 190.814,150.975 190.025,150.188 188.711,148.084 187.659,145.981 187.133,145.455 
		187.133,145.191 187.396,145.455 187.922,146.505 190.025,149.924 191.866,153.604 192.393,154.92 192.655,155.971 
		192.393,156.233 191.866,155.707 191.078,154.92 190.025,153.604 187.396,150.714 185.818,149.661 184.24,148.871 183.188,147.821 
		182.926,145.455 183.451,142.299 184.24,139.143 185.556,135.726 186.869,132.571 188.186,130.205 189.237,129.153 192.13,125.998 
			"/>
	<polygon fill-rule="evenodd" clip-rule="evenodd" fill="#BFBFBF" points="48.026,79.459 46.975,81.038 45.66,82.615 41.979,84.981 
		37.508,86.033 35.404,86.033 33.563,85.507 32.774,85.244 32.249,84.981 33.037,85.507 34.353,86.296 38.034,87.348 39.611,87.61 
		40.663,87.61 41.189,87.61 41.189,88.136 40.4,89.977 38.822,92.08 36.192,93.395 35.142,93.657 34.878,93.921 35.404,94.184 
		36.456,94.184 39.086,93.921 40.4,93.395 41.715,92.343 44.082,89.977 46.448,87.348 48.553,84.192 49.867,80.511 48.026,79.459 	
		"/>
	
		<polygon fill-rule="evenodd" clip-rule="evenodd" fill="#BFBFBF" stroke="#000000" stroke-width="0" stroke-linecap="square" stroke-miterlimit="10" points="
		44.082,92.606 43.556,93.657 42.504,94.709 39.611,96.287 36.192,97.076 33.563,97.076 32.774,96.813 32.512,97.076 32.774,97.602 
		34.089,98.127 35.93,98.653 36.456,98.917 36.719,98.917 36.192,99.442 34.089,99.705 31.46,99.442 30.671,99.442 30.934,99.968 
		32.249,100.757 34.089,101.283 36.456,101.545 39.086,100.757 41.715,98.917 43.029,97.602 44.082,95.761 44.082,92.606 	"/>
	
		<polygon fill-rule="evenodd" clip-rule="evenodd" fill="#BFBFBF" stroke="#000000" stroke-width="0" stroke-linecap="square" stroke-miterlimit="10" points="
		44.607,96.287 43.293,99.968 40.663,103.386 37.508,105.752 36.192,106.278 34.615,106.541 33.826,106.541 33.826,106.804 
		34.878,107.067 36.192,107.067 39.349,106.278 40.926,105.227 41.979,103.649 42.504,102.334 42.767,102.071 42.767,102.86 
		42.504,103.912 41.189,107.33 39.874,108.645 38.56,109.696 37.508,110.222 37.508,110.485 38.297,110.485 39.611,109.959 
		41.189,108.645 42.767,106.541 44.345,103.386 45.396,99.179 44.607,96.287 	"/>
	
		<polygon fill-rule="evenodd" clip-rule="evenodd" stroke="#000000" stroke-width="0" stroke-linecap="square" stroke-miterlimit="10" points="
		122.444,13.991 118.237,14.254 114.293,15.306 110.611,16.883 107.455,18.724 101.407,23.719 96.411,29.241 91.678,35.025 
		87.471,40.284 85.104,42.387 83,44.228 80.634,45.542 78.268,46.331 81.159,44.49 83.789,42.387 88.259,37.128 91.94,31.87 
		93.256,29.504 94.57,27.4 97.2,23.982 100.882,21.09 103.774,19.25 104.826,18.724 105.089,18.461 104.563,18.461 103.248,18.986 
		101.407,19.512 99.304,20.301 94.308,22.667 91.94,24.245 89.837,26.085 90.363,25.296 91.151,24.508 93.256,21.879 95.622,19.775 
		96.411,18.986 97.2,18.724 97.463,18.724 90.626,18.724 88.785,18.986 87.471,18.986 85.63,19.25 84.578,19.775 83.264,20.564 
		81.422,22.142 78.529,24.508 75.111,27.4 71.167,30.818 63.278,37.917 59.859,41.072 56.967,43.964 56.178,45.017 55.652,45.542 
		55.39,45.805 55.652,45.805 57.229,44.753 59.333,42.913 64.33,38.18 66.696,36.34 68.274,35.025 69.063,34.499 69.589,34.499 
		69.326,35.025 69.063,36.077 67.485,38.18 65.382,40.021 64.856,40.284 65.119,40.284 66.434,39.758 68.274,38.969 70.641,37.654 
		73.271,35.814 79.056,31.344 77.479,34.236 75.9,36.603 72.219,40.284 68.274,42.913 64.067,45.542 63.278,46.068 62.752,46.594 
		62.752,46.856 63.015,46.856 64.593,46.594 66.96,45.542 69.589,44.228 72.744,42.387 75.637,40.284 78.268,37.917 77.215,40.021 
		75.637,42.124 71.167,46.331 65.907,49.749 63.278,51.064 60.911,52.115 56.704,53.693 53.549,55.533 47.5,59.74 44.607,61.581 
		42.767,62.896 41.189,63.421 40.4,63.684 41.189,63.421 42.504,63.421 44.345,63.158 48.553,62.37 52.76,61.055 54.074,60.529 
		54.601,60.792 54.337,61.581 53.549,62.632 50.656,64.999 47.5,67.102 46.711,67.628 46.711,67.365 47.764,66.577 49.604,65.788 
		54.074,63.421 56.704,62.37 59.333,61.844 64.593,61.317 70.378,60.266 76.952,58.688 80.634,57.374 84.578,56.059 88.785,54.219 
		92.993,51.59 96.938,48.435 100.882,44.753 104.037,41.072 106.667,37.654 108.771,34.236 109.822,31.081 105.615,35.288 
		101.934,39.232 100.355,41.072 98.778,42.65 97.726,43.438 96.675,43.964 96.411,43.702 96.675,42.65 97.726,40.81 99.304,38.706 
		100.882,36.34 102.723,33.973 104.3,31.607 105.615,29.767 108.244,26.611 111.137,23.982 113.504,22.142 114.293,21.616 
		114.556,21.353 114.029,21.616 112.189,22.667 109.56,24.245 106.667,26.349 103.512,28.978 100.355,32.133 97.726,35.814 
		95.622,40.021 93.782,43.702 91.678,46.068 89.574,47.383 87.471,47.909 85.367,47.909 83.789,47.646 82.737,47.383 82.211,47.12 
		82.475,46.856 83,45.805 84.052,44.49 85.63,42.913 89.574,38.18 94.308,33.185 99.566,27.926 104.826,23.193 107.455,21.09 
		109.822,19.512 112.189,18.461 114.029,17.935 122.444,13.991 	"/>
	
		<polygon fill-rule="evenodd" clip-rule="evenodd" stroke="#000000" stroke-width="0" stroke-linecap="square" stroke-miterlimit="10" points="
		96.148,52.115 94.833,56.322 93.256,59.74 91.415,62.896 89.048,65.524 86.419,67.628 83,69.206 79.318,70.257 75.111,70.783 
		70.641,71.309 66.171,72.361 61.964,73.675 58.282,74.99 54.863,76.304 53.549,77.093 52.233,77.619 50.656,78.408 49.867,78.671 
		50.393,78.145 51.971,77.093 54.601,75.516 57.756,73.675 64.593,69.994 67.749,68.943 70.378,68.417 75.9,68.154 81.686,67.628 
		84.315,66.839 86.682,66.05 88.259,64.736 89.312,63.421 89.574,62.37 89.312,61.844 88.522,62.106 86.944,62.896 85.104,63.947 
		82.737,64.736 79.845,65.524 76.689,65.788 74.848,65.788 75.637,65.524 76.689,65.262 78.004,64.999 81.948,63.947 86.155,61.844 
		90.101,59.214 91.678,57.374 93.256,55.27 94.308,52.904 94.833,50.012 96.148,52.115 	"/>
	
		<polygon fill-rule="evenodd" clip-rule="evenodd" stroke="#000000" stroke-width="0" stroke-linecap="square" stroke-miterlimit="10" points="
		90.89,66.05 90.101,69.206 89.048,72.098 87.733,74.727 86.419,76.83 84.578,78.408 82.211,79.723 79.318,80.774 75.9,81.3 
		68.537,82.877 61.964,85.507 59.07,86.822 56.44,88.399 54.601,89.977 53.022,91.291 52.496,91.817 52.233,92.08 52.76,91.817 
		53.812,90.503 55.915,88.662 58.808,86.559 62.226,84.192 66.696,82.089 71.43,80.249 70.641,79.723 69.589,79.723 66.96,80.249 
		64.33,81.038 63.278,81.3 63.015,81.3 63.015,81.038 63.541,80.774 64.593,79.985 66.171,79.196 68.274,78.671 70.641,77.882 
		73.533,77.619 76.689,77.619 79.845,77.619 82.211,77.093 84.315,76.042 85.63,74.727 87.996,71.309 88.785,69.206 89.837,66.839 
		90.89,66.05 	"/>
	
		<polygon fill-rule="evenodd" clip-rule="evenodd" stroke="#000000" stroke-width="0" stroke-linecap="square" stroke-miterlimit="10" points="
		56.44,69.469 59.859,65.788 63.541,63.421 67.223,61.844 70.641,60.792 73.797,60.003 76.426,59.214 78.529,57.899 79.845,56.059 
		78.793,58.425 76.689,60.266 74.06,61.317 70.904,62.37 64.067,64.473 60.911,66.05 58.282,68.417 56.44,69.469 	"/>
	
		<polygon fill-rule="evenodd" clip-rule="evenodd" stroke="#000000" stroke-width="0" stroke-linecap="square" stroke-miterlimit="10" points="
		86.155,79.459 84.578,82.089 82.737,84.192 81.159,86.033 79.582,87.084 76.163,88.662 73.008,89.451 67.223,89.714 65.119,89.977 
		63.278,91.291 64.593,89.714 66.434,88.662 68.8,88.136 74.586,87.084 77.741,85.77 80.896,83.93 83.789,81.038 86.155,79.459 	"/>
	
		<polygon fill-rule="evenodd" clip-rule="evenodd" stroke="#000000" stroke-width="0" stroke-linecap="square" stroke-miterlimit="10" points="
		86.944,87.61 86.682,89.188 85.63,91.028 82.211,94.709 78.529,98.917 76.952,101.02 75.9,103.386 75.374,104.964 74.848,105.49 
		74.848,104.701 75.374,103.123 76.426,100.757 78.268,97.602 81.159,94.184 84.841,90.24 86.944,87.61 	"/>
	<polygon fill-rule="evenodd" clip-rule="evenodd" fill="#BFBFBF" points="88.785,47.383 87.471,48.96 85.104,50.012 82.475,50.801 
		79.318,51.327 73.008,52.641 70.115,53.693 67.485,55.27 66.434,56.059 65.645,56.322 65.119,56.585 65.645,55.796 67.223,54.482 
		69.852,52.904 73.797,51.064 78.793,49.486 85.104,48.435 88.785,47.383 	"/>
	
		<polygon fill-rule="evenodd" clip-rule="evenodd" stroke="#000000" stroke-width="0" stroke-linecap="square" stroke-miterlimit="10" points="
		101.145,13.728 94.045,15.306 87.208,17.935 80.896,21.09 75.111,24.508 70.115,28.452 66.171,32.133 63.015,35.551 62.226,37.128 
		61.438,38.443 60.911,39.495 60.648,40.021 60.386,40.284 60.386,40.021 60.648,39.495 60.911,38.706 62.226,36.077 64.33,32.659 
		67.485,28.715 71.693,24.508 77.215,20.301 78.793,19.512 81.159,18.724 87.733,16.357 91.415,15.306 94.308,14.517 96.938,13.991 
		98.252,13.728 101.145,13.728 	"/>
	
		<polygon fill-rule="evenodd" clip-rule="evenodd" stroke="#000000" stroke-width="0" stroke-linecap="square" stroke-miterlimit="10" points="
		68.012,143.613 70.904,143.352 73.008,142.825 74.586,142.036 75.111,141.772 74.848,142.036 74.586,142.563 73.008,144.402 
		71.167,146.242 69.589,147.558 69.326,148.084 70.115,148.348 73.271,147.558 73.797,147.558 73.533,147.558 73.008,148.084 
		72.219,148.871 71.167,149.924 69.852,151.238 68.537,153.341 67.485,155.707 69.063,153.604 70.641,152.554 71.956,152.027 
		73.533,152.027 74.06,152.027 73.271,152.291 72.219,152.816 70.641,153.604 69.326,154.92 67.749,157.023 66.434,159.916 
		65.907,161.229 65.645,161.756 65.119,161.756 65.119,161.229 64.856,158.863 65.119,155.707 65.645,148.608 66.171,145.981 
		66.171,144.929 68.012,143.613 	"/>
	
		<polygon fill-rule="evenodd" clip-rule="evenodd" stroke="#000000" stroke-width="0" stroke-linecap="square" stroke-miterlimit="10" points="
		74.848,177.006 75.111,182.263 74.848,188.049 73.533,193.308 72.481,195.147 71.43,196.725 73.533,195.674 74.848,194.095 
		75.374,191.991 75.637,189.889 75.637,189.362 75.9,189.625 75.9,190.415 76.163,191.729 75.374,195.41 74.586,197.25 
		73.271,199.091 75.374,197.514 76.952,195.674 78.004,193.044 78.268,191.204 78.004,188.838 79.056,190.678 79.845,191.991 
		80.371,193.044 80.634,194.357 80.634,194.621 80.634,194.357 80.896,193.834 80.634,192.518 80.107,189.625 78.268,186.472 
		76.426,183.579 75.374,180.687 75.111,178.583 75.111,177.794 74.848,177.006 	"/>
	
		<polygon fill-rule="evenodd" clip-rule="evenodd" stroke="#000000" stroke-width="0" stroke-linecap="square" stroke-miterlimit="10" points="
		73.533,159.916 71.956,160.967 70.641,162.282 68.8,165.436 68.012,169.645 68.274,174.64 69.852,179.373 70.904,181.213 
		71.693,182.789 72.219,184.368 72.481,185.682 72.219,186.996 71.167,188.312 70.378,189.362 70.641,189.889 71.43,189.362 
		72.481,188.312 73.271,186.208 73.271,183.579 73.008,181.739 72.219,179.896 71.167,177.794 69.852,175.428 69.589,174.377 
		69.589,173.061 70.378,170.168 71.693,167.278 73.271,165.175 73.797,164.648 73.533,164.648 71.956,165.436 69.852,167.015 
		69.063,168.065 68.8,169.118 68.537,169.907 68.537,168.854 68.8,167.541 69.852,164.122 70.904,162.545 72.219,161.229 
		73.533,159.916 	"/>
	
		<polygon fill-rule="evenodd" clip-rule="evenodd" stroke="#000000" stroke-width="0" stroke-linecap="square" stroke-miterlimit="10" points="
		146.11,135.726 143.218,136.515 141.115,137.304 139.537,138.355 138.485,139.406 137.696,141.247 137.434,142.299 
		136.907,142.299 135.593,142.036 134.015,141.511 132.7,141.772 131.122,143.352 127.967,147.558 127.441,148.348 127.178,148.871 
		127.703,148.348 128.493,147.558 129.281,146.505 131.648,144.402 132.7,143.613 133.752,143.352 135.066,143.613 135.329,144.665 
		135.329,145.718 135.593,145.191 136.645,144.139 137.959,142.299 139.273,139.669 140.063,138.618 140.589,138.355 
		140.852,138.618 141.115,139.143 141.378,140.722 141.378,141.511 141.64,141.247 142.43,140.196 142.956,139.143 143.218,138.355 
		143.744,138.092 144.532,138.618 145.322,139.669 145.585,141.247 145.585,141.772 145.849,141.772 146.637,140.722 
		147.425,138.881 147.688,136.777 146.11,135.726 	"/>
	<polygon fill-rule="evenodd" clip-rule="evenodd" points="102.985,126.786 101.934,134.148 101.934,137.83 102.985,141.511 
		103.512,143.089 103.774,144.665 103.774,146.769 103.248,148.084 102.723,148.608 102.985,148.084 104.3,146.769 105.089,144.665 
		105.352,143.352 105.089,141.772 104.037,139.143 103.248,137.304 102.723,135.2 102.985,133.885 103.512,132.308 104.826,133.097 
		105.615,134.148 106.667,136.515 106.667,139.143 106.93,138.618 107.455,136.777 107.455,135.726 107.193,134.411 
		106.404,132.834 105.089,131.256 102.985,126.786 	"/>
	<polygon fill-rule="evenodd" clip-rule="evenodd" fill="#FFFFFF" points="112.979,140.722 111.137,143.089 110.349,146.242 
		110.349,149.397 110.874,152.291 111.137,153.08 111.4,153.341 111.4,151.765 111.137,148.871 111.4,146.505 111.663,145.981 
		112.189,145.981 112.979,147.295 113.504,149.135 113.241,150.45 113.241,150.975 114.029,150.714 114.556,150.188 
		114.556,149.397 114.293,148.084 113.767,146.242 112.979,144.665 112.715,143.352 112.452,142.563 112.452,142.036 
		112.979,141.772 112.979,140.722 	"/>
	<polygon fill-rule="evenodd" clip-rule="evenodd" points="124.812,150.45 124.285,151.501 124.022,153.08 124.285,156.76 
		124.812,160.179 125.337,161.492 125.863,162.019 126.126,162.282 125.074,161.756 123.759,160.179 123.233,158.863 
		122.971,157.286 122.971,155.971 122.708,155.446 122.182,155.971 121.13,157.55 119.552,158.863 118.763,158.863 119.026,158.337 
		119.552,157.813 120.078,157.023 120.604,155.971 120.866,153.867 120.604,153.08 119.815,152.816 118.237,153.604 116.923,154.92 
		116.396,155.446 116.134,155.707 116.396,155.184 116.923,153.604 117.448,151.501 117.711,148.871 117.711,148.084 
		117.974,148.084 118.237,149.135 118.763,150.975 119.552,152.291 120.341,152.291 121.13,151.765 121.655,149.397 
		121.655,149.135 121.655,149.397 122.182,150.975 122.444,153.08 122.444,154.131 124.022,151.501 124.812,150.45 	"/>
	
		<polygon fill-rule="evenodd" clip-rule="evenodd" stroke="#000000" stroke-width="0" stroke-linecap="square" stroke-miterlimit="10" points="
		141.64,149.661 141.64,152.554 141.115,154.92 139.8,156.497 137.959,157.55 136.381,159.126 136.118,160.967 136.381,163.069 
		137.171,165.175 137.434,165.699 137.434,164.385 137.696,161.756 138.748,159.652 139.273,159.126 139.8,159.126 140.063,160.442 
		140.325,162.282 140.325,162.809 140.589,163.069 140.852,162.809 141.115,162.282 141.64,160.967 142.692,159.126 143.744,158.6 
		145.322,158.073 149.003,157.55 153.211,157.55 157.156,157.813 160.311,158.337 162.415,159.126 164.781,160.179 167.41,160.703 
		168.988,160.703 170.829,160.442 172.933,160.179 174.773,160.442 178.192,162.019 180.296,163.596 180.822,164.122 
		181.085,164.385 180.822,164.648 180.559,165.436 179.771,168.328 178.981,171.484 179.244,173.061 179.508,174.113 
		180.032,174.901 180.296,174.377 180.296,171.221 180.822,169.118 181.348,168.592 181.61,168.592 181.874,169.907 
		182.137,172.011 183.451,173.851 183.978,174.113 183.978,173.587 183.451,172.273 182.926,170.694 182.137,166.488 
		182.137,164.385 182.663,162.282 182.663,161.756 182.4,161.229 180.296,160.703 177.403,160.179 173.985,158.863 172.671,158.073 
		171.618,157.813 170.566,157.813 170.04,158.073 169.252,158.073 168.2,158.337 166.886,158.073 163.729,157.286 160.573,156.233 
		156.63,155.707 154.264,155.707 151.633,156.233 149.003,156.76 146.9,157.286 145.322,157.55 144.271,157.813 143.744,157.55 
		143.481,157.286 143.218,156.497 143.218,155.446 141.64,149.661 	"/>
	<polygon fill-rule="evenodd" clip-rule="evenodd" fill="#BFBFBF" points="156.893,167.541 157.418,170.168 157.156,172.273 
		156.63,173.851 155.052,175.954 154.788,177.006 154.788,178.32 155.84,179.634 156.893,181.213 157.418,182.789 157.418,185.682 
		156.63,187.522 156.366,188.049 156.104,188.049 156.366,187.785 156.893,186.996 158.471,184.893 159.522,182.002 
		159.259,180.687 158.471,179.373 157.681,178.057 157.156,176.48 157.681,173.851 158.471,172.273 158.732,172.011 
		158.996,172.273 158.732,173.851 158.732,175.428 158.996,177.006 159.785,177.794 160.837,178.847 161.363,179.373 
		162.94,180.423 164.255,181.213 165.833,182.526 163.203,179.373 161.625,176.48 160.573,174.113 160.049,171.747 159.785,169.907 
		159.259,168.592 158.471,167.802 156.893,167.541 	"/>
	<polygon fill-rule="evenodd" clip-rule="evenodd" fill="#BFBFBF" points="171.618,171.747 173.196,173.587 174.247,175.954 
		174.773,178.847 174.773,187.259 175.037,189.362 175.563,190.415 176.089,190.941 175.825,191.204 175.037,190.941 
		174.247,190.151 173.459,188.838 172.671,186.734 172.671,183.842 173.196,179.634 173.459,177.794 173.459,176.743 
		172.671,175.164 171.618,174.113 170.566,172.535 171.618,171.747 	"/>
	<polygon fill-rule="evenodd" clip-rule="evenodd" fill="#BFBFBF" points="119.815,211.448 120.078,216.707 119.815,222.492 
		118.5,227.749 117.448,229.592 116.396,231.168 118.5,230.115 119.815,228.539 120.341,226.699 120.604,224.596 120.604,224.069 
		120.866,224.069 120.866,224.858 121.13,226.173 120.341,229.854 119.552,231.694 118.237,233.534 120.341,232.221 
		121.919,230.379 122.971,227.488 123.233,225.646 122.971,223.28 124.022,225.383 124.812,226.699 125.337,227.749 
		125.601,228.802 125.601,229.328 125.601,229.065 125.863,228.275 125.601,227.226 125.074,224.069 123.233,220.914 
		121.393,218.021 120.341,215.131 120.078,213.027 120.078,212.238 119.815,211.448 	"/>
	<polygon fill-rule="evenodd" clip-rule="evenodd" fill="#BFBFBF" points="114.818,190.415 113.241,191.468 111.926,192.781 
		110.086,195.937 109.297,200.144 109.822,205.139 110.349,207.505 111.137,209.871 112.189,211.712 112.979,213.288 
		113.504,214.867 113.767,216.181 113.504,217.497 112.452,218.811 111.663,219.863 111.926,220.388 112.715,219.863 
		113.767,218.811 114.556,216.707 114.556,214.078 114.293,212.238 113.504,210.397 112.452,208.295 111.137,205.929 
		110.874,204.876 110.874,203.563 111.663,200.669 112.979,197.776 114.556,195.674 115.082,195.147 114.818,195.147 
		114.293,195.41 113.241,195.937 111.4,197.514 110.611,198.566 110.086,199.617 110.086,200.406 109.822,200.144 109.822,199.354 
		110.086,198.04 111.137,194.621 112.189,193.044 113.504,191.729 114.818,190.415 	"/>
	<polygon fill-rule="evenodd" clip-rule="evenodd" fill="#BFBFBF" points="184.503,233.008 185.029,238.268 184.503,244.053 
		183.451,249.31 182.4,251.151 181.348,252.729 183.188,251.676 184.503,250.099 185.029,248.259 185.293,246.155 185.293,245.629 
		185.556,245.629 185.556,246.419 185.818,247.732 185.029,251.415 184.24,253.255 182.926,255.095 185.029,253.518 
		186.607,251.676 187.659,249.048 187.922,247.206 187.659,244.84 188.711,246.682 189.5,247.996 190.025,249.048 190.288,250.362 
		190.288,250.625 190.552,250.362 190.552,248.521 189.762,245.629 188.974,244.053 187.922,242.474 186.081,239.581 
		185.029,236.69 184.767,234.587 184.767,233.798 184.503,233.008 	"/>
	<polygon fill-rule="evenodd" clip-rule="evenodd" fill="#BFBFBF" points="144.532,254.568 144.008,256.408 143.218,258.25 
		140.852,261.404 137.696,263.771 136.381,264.297 134.803,264.56 134.015,264.56 134.015,264.823 135.066,265.086 136.381,265.086 
		139.537,264.297 140.852,263.246 141.903,261.667 142.43,260.354 142.956,260.354 142.956,260.88 142.692,262.193 141.115,265.35 
		140.063,266.663 138.485,267.716 137.434,268.242 137.434,268.766 138.222,268.766 139.537,268.242 141.115,266.926 
		142.956,264.823 144.271,261.667 145.322,257.197 144.532,254.568 	"/>
	<polygon fill-rule="evenodd" clip-rule="evenodd" fill="#BFBFBF" points="131.122,249.048 130.596,252.202 128.756,255.095 
		126.126,257.197 122.971,258.25 124.548,259.038 126.126,259.301 127.967,258.514 129.018,257.724 129.281,257.461 
		129.544,257.724 129.808,259.301 129.281,261.404 127.703,263.246 127.178,263.771 127.178,264.033 127.703,264.033 
		128.493,263.771 130.07,262.72 131.386,260.616 131.91,257.987 132.174,255.357 132.174,252.202 131.386,249.048 131.122,249.048 	
		"/>
	<polygon fill-rule="evenodd" clip-rule="evenodd" fill="#BFBFBF" points="154.525,227.488 155.052,228.802 155.052,230.905 
		154.788,233.534 154.264,236.428 152.159,242.474 151.107,245.103 150.056,246.943 149.267,248.259 149.003,249.048 
		149.267,249.048 149.793,248.521 151.633,246.682 153.474,243.789 154,242.736 154.525,242.474 154.525,243 154.264,244.053 
		153.474,245.366 152.686,247.47 150.318,251.938 149.793,252.991 149.529,253.255 149.793,253.518 150.318,252.991 
		150.845,252.202 151.633,250.889 153.474,247.732 155.314,243.526 156.63,238.794 156.893,233.534 156.63,230.905 155.84,228.275 
		154.525,227.488 	"/>
	<polygon fill-rule="evenodd" clip-rule="evenodd" fill="#0F0F0F" points="191.604,219.073 192.655,219.863 193.707,221.703 
		194.759,224.069 195.548,226.962 196.863,233.271 197.125,235.901 197.125,238.268 197.125,240.37 197.389,240.37 197.651,239.844 
		198.178,237.215 198.44,233.798 198.44,232.482 198.703,231.958 198.967,232.482 199.229,233.534 199.493,235.111 199.755,237.215 
		199.755,242.474 199.755,244.053 200.018,243.789 200.281,243.263 200.544,240.896 200.544,237.215 200.018,232.745 
		198.703,227.749 196.6,223.28 195.022,220.914 193.181,219.073 191.604,219.073 	"/>
	<polygon fill-rule="evenodd" clip-rule="evenodd" fill="#FFFFFF" points="53.022,97.076 52.233,101.02 52.233,104.701 
		53.022,108.382 54.074,112.063 56.967,118.373 58.545,121.002 59.859,123.631 60.911,125.735 62.489,127.312 64.33,128.627 
		68.012,129.679 70.115,129.416 71.693,129.153 73.271,128.364 74.322,127.575 74.586,126.786 74.322,125.998 73.533,125.209 
		68.8,122.58 68.012,122.054 68.012,121.265 68.537,119.425 69.589,117.321 69.852,116.006 69.589,114.955 68.8,113.903 
		67.749,113.377 65.119,112.588 61.7,112.063 58.282,110.748 56.967,109.433 55.915,108.119 54.863,104.964 54.337,101.545 
		54.337,98.39 53.022,97.076 	"/>
	<polygon fill-rule="evenodd" clip-rule="evenodd" fill="#BFBFBF" points="54.337,109.959 57.493,116.532 59.597,119.425 
		61.438,122.054 63.278,123.894 65.119,125.209 66.434,125.209 67.223,124.42 67.485,123.369 67.223,122.58 66.434,122.054 
		65.119,121.528 63.278,120.477 61.175,118.898 58.808,116.006 57.229,114.166 55.915,112.063 54.337,109.959 	"/>
</g>
</svg>
